<svg id="Layer_1" data-name="Layer 1" xmlns="http://www.w3.org/2000/svg" viewBox="0 0 162.79 28.54"><defs><style>.cls-1{fill:#fff;}</style></defs><path class="cls-1" d="M23.26,20.83h-15a4.25,4.25,0,0,0,1.77,2.45,5.89,5.89,0,0,0,3.29.85,7,7,0,0,0,2.56-.42,7.53,7.53,0,0,0,2.19-1.36l3.8,3.95q-3,3.35-8.78,3.34a13.94,13.94,0,0,1-6.35-1.37,10.15,10.15,0,0,1-4.23-3.8A10.26,10.26,0,0,1,1,19a10.27,10.27,0,0,1,1.46-5.45A10.12,10.12,0,0,1,6.54,9.73a12.24,12.24,0,0,1,5.81-1.37,12.32,12.32,0,0,1,5.59,1.27,9.73,9.73,0,0,1,4,3.69A10.88,10.88,0,0,1,23.37,19C23.37,19.09,23.33,19.69,23.26,20.83ZM9.6,14.44A4.3,4.3,0,0,0,8.17,17h8.44a4.35,4.35,0,0,0-1.43-2.59,4.19,4.19,0,0,0-2.79-.95A4.16,4.16,0,0,0,9.6,14.44Z" transform="translate(-1.03 -1.1)"/><path class="cls-1" d="M25.57,1.1h7.22V29.3H25.57Z" transform="translate(-1.03 -1.1)"/><path class="cls-1" d="M57.27,20.83h-15a4.25,4.25,0,0,0,1.77,2.45,5.89,5.89,0,0,0,3.29.85,7,7,0,0,0,2.56-.42,7.53,7.53,0,0,0,2.19-1.36l3.8,3.95q-3,3.35-8.78,3.34a13.94,13.94,0,0,1-6.35-1.37,10.15,10.15,0,0,1-4.23-3.8A10.26,10.26,0,0,1,35,19a10.27,10.27,0,0,1,1.46-5.45,10.12,10.12,0,0,1,4-3.78,13,13,0,0,1,11.39-.1,9.7,9.7,0,0,1,4,3.69A10.88,10.88,0,0,1,57.38,19C57.38,19.09,57.34,19.69,57.27,20.83ZM43.6,14.44A4.34,4.34,0,0,0,42.18,17h8.44a4.35,4.35,0,0,0-1.43-2.59,4.59,4.59,0,0,0-5.59,0Z" transform="translate(-1.03 -1.1)"/><path class="cls-1" d="M64,28.27A10.12,10.12,0,0,1,58.29,19,10,10,0,0,1,64,9.71a13.5,13.5,0,0,1,6.12-1.35,11.69,11.69,0,0,1,6,1.5A8.31,8.31,0,0,1,79.76,14l-5.58,2.85a4.43,4.43,0,0,0-4.11-2.77,4.33,4.33,0,0,0-3.21,1.29A4.86,4.86,0,0,0,65.59,19a5,5,0,0,0,1.27,3.63,4.27,4.27,0,0,0,3.21,1.31,4.43,4.43,0,0,0,4.11-2.77L79.76,24a8.31,8.31,0,0,1-3.61,4.16,11.69,11.69,0,0,1-6,1.5A13.25,13.25,0,0,1,64,28.27Z" transform="translate(-1.03 -1.1)"/><path class="cls-1" d="M95.91,28.46a7.25,7.25,0,0,1-2.22.88,12.59,12.59,0,0,1-2.8.3,8.9,8.9,0,0,1-6.19-2,7.6,7.6,0,0,1-2.17-5.89V14.86h-3V9.46h3V4.11h7.22V9.46h4.72v5.4H89.75V21.7a2.43,2.43,0,0,0,.59,1.73,2.07,2.07,0,0,0,1.58.63,3.8,3.8,0,0,0,2.2-.65Z" transform="translate(-1.03 -1.1)"/><path class="cls-1" d="M117.87,20.83h-15a4.25,4.25,0,0,0,1.77,2.45,5.89,5.89,0,0,0,3.29.85,7.08,7.08,0,0,0,2.56-.42,7.53,7.53,0,0,0,2.19-1.36l3.8,3.95q-3,3.35-8.78,3.34a13.94,13.94,0,0,1-6.35-1.37,10.15,10.15,0,0,1-4.23-3.8A10.26,10.26,0,0,1,95.65,19a10.27,10.27,0,0,1,1.46-5.45,10.16,10.16,0,0,1,4-3.78,13,13,0,0,1,11.4-.1,9.7,9.7,0,0,1,4,3.69A10.88,10.88,0,0,1,118,19C118,19.09,118,19.69,117.87,20.83Zm-13.66-6.39A4.34,4.34,0,0,0,102.79,17h8.44a4.35,4.35,0,0,0-1.43-2.59,4.59,4.59,0,0,0-5.59,0Z" transform="translate(-1.03 -1.1)"/><path class="cls-1" d="M124.6,28.27A10.12,10.12,0,0,1,118.9,19a10,10,0,0,1,5.7-9.25,13.5,13.5,0,0,1,6.12-1.35,11.69,11.69,0,0,1,6,1.5A8.31,8.31,0,0,1,140.37,14l-5.59,2.85a4.41,4.41,0,0,0-4.1-2.77,4.33,4.33,0,0,0-3.21,1.29A4.86,4.86,0,0,0,126.2,19a5,5,0,0,0,1.27,3.63,4.27,4.27,0,0,0,3.21,1.31,4.41,4.41,0,0,0,4.1-2.77L140.37,24a8.31,8.31,0,0,1-3.61,4.16,11.69,11.69,0,0,1-6,1.5A13.25,13.25,0,0,1,124.6,28.27Z" transform="translate(-1.03 -1.1)"/><path class="cls-1" d="M161.48,10.64c1.56,1.52,2.34,3.82,2.34,6.88V29.3H156.6V18.7q0-4.21-3.39-4.22a3.87,3.87,0,0,0-3,1.22,5.19,5.19,0,0,0-1.12,3.64v10h-7.22V1.1h7.22v9.5a8,8,0,0,1,2.77-1.67,10.16,10.16,0,0,1,3.43-.57A8.47,8.47,0,0,1,161.48,10.64Z" transform="translate(-1.03 -1.1)"/></svg>